<svg width="27" height="85" viewBox="0 0 27 85" fill="none" xmlns="http://www.w3.org/2000/svg">
<mask id="path-1-outside-1_204_3" maskUnits="userSpaceOnUse" x="-0.947266" y="-0.567993" width="28" height="85" fill="black">
<rect fill="white" x="-0.947266" y="-0.567993" width="28" height="85"/>
<path d="M1.00023 83.432V1H25.0642V83.432H1.00023Z"/>
</mask>
<path d="M1.00023 83.432H0.000234604V84.432H1.00023V83.432ZM1.00023 1V0H0.000234604V1H1.00023ZM25.0642 1H26.0642V0H25.0642V1ZM25.0642 83.432V84.432H26.0642V83.432H25.0642ZM1.00023 83.432H2.00023V1H1.00023H0.000234604V83.432H1.00023ZM1.00023 1V2H25.0642V1V0H1.00023V1ZM25.0642 1H24.0642V83.432H25.0642H26.0642V1H25.0642ZM25.0642 83.432V82.432H1.00023V83.432V84.432H25.0642V83.432Z" fill="black" mask="url(#path-1-outside-1_204_3)"/>
</svg>
