<svg width="78" height="85" viewBox="0 0 78 85" fill="none" xmlns="http://www.w3.org/2000/svg">
<mask id="path-1-outside-1_204_4" maskUnits="userSpaceOnUse" x="-0.197266" y="-0.567993" width="78" height="85" fill="black">
<rect fill="white" x="-0.197266" y="-0.567993" width="78" height="85"/>
<path d="M1.00023 83.432V1H21.4802L52.5842 44.648V1H76.6482V83.432H56.0402L25.0642 39.912V83.432H1.00023Z"/>
</mask>
<path d="M1.00023 83.432H0.000234604V84.432H1.00023V83.432ZM1.00023 1V0H0.000234604V1H1.00023ZM21.4802 1L22.2946 0.419666L21.9956 0H21.4802V1ZM52.5842 44.648L51.7699 45.2283L53.5842 47.7744V44.648H52.5842ZM52.5842 1V0H51.5842V1H52.5842ZM76.6482 1H77.6482V0H76.6482V1ZM76.6482 83.432V84.432H77.6482V83.432H76.6482ZM56.0402 83.432L55.2255 84.0119L55.5246 84.432H56.0402V83.432ZM25.0642 39.912L25.8789 39.3321L24.0642 36.7825V39.912H25.0642ZM25.0642 83.432V84.432H26.0642V83.432H25.0642ZM1.00023 83.432H2.00023V1H1.00023H0.000234604V83.432H1.00023ZM1.00023 1V2H21.4802V1V0H1.00023V1ZM21.4802 1L20.6659 1.58033L51.7699 45.2283L52.5842 44.648L53.3986 44.0677L22.2946 0.419666L21.4802 1ZM52.5842 44.648H53.5842V1H52.5842H51.5842V44.648H52.5842ZM52.5842 1V2H76.6482V1V0H52.5842V1ZM76.6482 1H75.6482V83.432H76.6482H77.6482V1H76.6482ZM76.6482 83.432V82.432H56.0402V83.432V84.432H76.6482V83.432ZM56.0402 83.432L56.8549 82.8521L25.8789 39.3321L25.0642 39.912L24.2495 40.4919L55.2255 84.0119L56.0402 83.432ZM25.0642 39.912H24.0642V83.432H25.0642H26.0642V39.912H25.0642ZM25.0642 83.432V82.432H1.00023V83.432V84.432H25.0642V83.432Z" fill="black" mask="url(#path-1-outside-1_204_4)"/>
</svg>
