<svg width="67" height="87" viewBox="0 0 67 87" fill="none" xmlns="http://www.w3.org/2000/svg">
<mask id="path-1-outside-1_204_6" maskUnits="userSpaceOnUse" x="-0.200195" y="-0.287964" width="67" height="88" fill="black">
<rect fill="white" x="-0.200195" y="-0.287964" width="67" height="88"/>
<path d="M30.5678 85.992C25.0211 85.992 19.7731 85.5654 14.8238 84.712C9.87447 83.7734 5.65047 82.4934 2.1518 80.872V61.032C5.99181 62.824 10.2585 64.2747 14.9518 65.384C19.6451 66.4934 24.0398 67.048 28.1358 67.048C32.4025 67.048 35.6025 66.7067 37.7358 66.024C39.9545 65.256 41.0638 63.592 41.0638 61.032C41.0638 59.24 40.4238 57.832 39.1438 56.808C37.9491 55.784 36.0291 54.8454 33.3838 53.992C30.8238 53.1387 27.4531 52.072 23.2718 50.792C17.7251 49 13.3305 47.0374 10.0878 44.904C6.84514 42.7707 4.49847 40.168 3.0478 37.096C1.68247 34.024 0.999805 30.2694 0.999805 25.832C0.999805 17.7254 3.85847 11.5814 9.57581 7.40003C15.3785 3.13336 23.9545 1.00003 35.3038 1.00003C39.8265 1.00003 44.4771 1.38403 49.2558 2.15203C54.1198 2.92003 58.0451 3.77337 61.0318 4.71204V24.68C57.0211 23.0587 53.1811 21.9067 49.5118 21.224C45.8425 20.5414 42.3865 20.2 39.1438 20.2C35.3891 20.2 32.1891 20.4987 29.5438 21.096C26.8985 21.6934 25.5758 23.2294 25.5758 25.704C25.5758 27.8374 26.6851 29.416 28.9038 30.44C31.2078 31.3787 35.2611 32.616 41.0638 34.152C47.8051 35.944 52.9251 38.12 56.4238 40.68C60.0078 43.24 62.4398 46.2267 63.7198 49.64C64.9998 52.968 65.6398 56.7654 65.6398 61.032C65.6398 68.5414 62.7385 74.6 56.9358 79.208C51.1331 83.7307 42.3438 85.992 30.5678 85.992Z"/>
</mask>
<path d="M14.8238 84.712L14.6375 85.6945L14.6457 85.6961L14.6539 85.6975L14.8238 84.712ZM2.1518 80.872H1.1518V81.5108L1.73134 81.7793L2.1518 80.872ZM2.1518 61.032L2.57469 60.1259L1.1518 59.4618V61.032H2.1518ZM14.9518 65.384L14.7218 66.3572L14.7218 66.3572L14.9518 65.384ZM37.7358 66.024L38.0406 66.9765L38.0518 66.9729L38.0629 66.969L37.7358 66.024ZM39.1438 56.808L38.493 57.5673L38.5059 57.5783L38.5191 57.5889L39.1438 56.808ZM33.3838 53.992L33.0676 54.9408L33.0768 54.9437L33.3838 53.992ZM23.2718 50.792L22.9644 51.7436L22.9717 51.746L22.9791 51.7482L23.2718 50.792ZM10.0878 44.904L9.53819 45.7395L9.53819 45.7395L10.0878 44.904ZM3.0478 37.096L2.13399 37.5022L2.13865 37.5127L2.14356 37.523L3.0478 37.096ZM9.57581 7.40003L10.1661 8.2072L10.1682 8.20568L9.57581 7.40003ZM49.2558 2.15203L49.0971 3.13937L49.0998 3.13979L49.2558 2.15203ZM61.0318 4.71204H62.0318V3.9781L61.3316 3.75804L61.0318 4.71204ZM61.0318 24.68L60.657 25.6071L62.0318 26.1629V24.68H61.0318ZM49.5118 21.224L49.3289 22.2072L49.3289 22.2072L49.5118 21.224ZM29.5438 21.096L29.3235 20.1206L29.5438 21.096ZM28.9038 30.44L28.4847 31.348L28.5054 31.3575L28.5265 31.3661L28.9038 30.44ZM41.0638 34.152L41.3207 33.1856L41.3197 33.1853L41.0638 34.152ZM56.4238 40.68L55.8333 41.4871L55.8426 41.4938L56.4238 40.68ZM63.7198 49.64L62.7834 49.9912L62.7865 49.999L63.7198 49.64ZM56.9358 79.208L57.5506 79.9968L57.5577 79.9911L56.9358 79.208ZM30.5678 85.992V84.992C25.0723 84.992 19.8815 84.5693 14.9937 83.7266L14.8238 84.712L14.6539 85.6975C19.6648 86.5614 24.97 86.992 30.5678 86.992V85.992ZM14.8238 84.712L15.0101 83.7295C10.1185 82.8018 5.97755 81.5428 2.57227 79.9647L2.1518 80.872L1.73134 81.7793C5.32339 83.444 9.63046 84.7449 14.6375 85.6945L14.8238 84.712ZM2.1518 80.872H3.1518V61.032H2.1518H1.1518V80.872H2.1518ZM2.1518 61.032L1.72892 61.9382C5.63854 63.7627 9.97097 65.2343 14.7218 66.3572L14.9518 65.384L15.1818 64.4109C10.546 63.3151 6.34507 61.8854 2.57469 60.1259L2.1518 61.032ZM14.9518 65.384L14.7218 66.3572C19.4776 67.4813 23.9501 68.048 28.1358 68.048V67.048V66.048C24.1295 66.048 19.8127 65.5054 15.1818 64.4109L14.9518 65.384ZM28.1358 67.048V68.048C32.4302 68.048 35.756 67.7075 38.0406 66.9765L37.7358 66.024L37.431 65.0716C35.4489 65.7059 32.3748 66.048 28.1358 66.048V67.048ZM37.7358 66.024L38.0629 66.969C39.3414 66.5265 40.3678 65.7988 41.0639 64.7547C41.755 63.718 42.0638 62.4545 42.0638 61.032H41.0638H40.0638C40.0638 62.1696 39.818 63.018 39.3998 63.6453C38.9864 64.2653 38.3489 64.7536 37.4087 65.079L37.7358 66.024ZM41.0638 61.032H42.0638C42.0638 58.9686 41.3099 57.2603 39.7685 56.0272L39.1438 56.808L38.5191 57.5889C39.5377 58.4038 40.0638 59.5115 40.0638 61.032H41.0638ZM39.1438 56.808L39.7946 56.0488C38.4498 54.8961 36.3805 53.908 33.6908 53.0403L33.3838 53.992L33.0768 54.9437C35.6778 55.7828 37.4485 56.672 38.493 57.5673L39.1438 56.808ZM33.3838 53.992L33.7 53.0434C31.129 52.1863 27.7496 51.117 23.5645 49.8358L23.2718 50.792L22.9791 51.7482C27.1567 53.0271 30.5186 54.0911 33.0676 54.9407L33.3838 53.992ZM23.2718 50.792L23.5792 49.8405C18.0799 48.0637 13.7775 46.1344 10.6374 44.0686L10.0878 44.904L9.53819 45.7395C12.8835 47.9403 17.3704 49.9363 22.9644 51.7436L23.2718 50.792ZM10.0878 44.904L10.6374 44.0686C7.5259 42.0216 5.31359 39.5523 3.95205 36.669L3.0478 37.096L2.14356 37.523C3.68335 40.7838 6.16437 43.5198 9.53819 45.7395L10.0878 44.904ZM3.0478 37.096L3.96162 36.6899C2.66819 33.7797 1.9998 30.1721 1.9998 25.832H0.999805H-0.000195265C-0.000195265 30.3667 0.696756 34.2684 2.13399 37.5022L3.0478 37.096ZM0.999805 25.832H1.9998C1.9998 17.9915 4.74614 12.1711 10.1661 8.2072L9.57581 7.40003L8.98549 6.59286C2.9708 10.9917 -0.000195265 17.4592 -0.000195265 25.832H0.999805ZM9.57581 7.40003L10.1682 8.20568C15.7257 4.11928 24.0535 2.00003 35.3038 2.00003V1.00003V3.05176e-05C23.8554 3.05176e-05 15.0312 2.14745 8.98342 6.59438L9.57581 7.40003ZM35.3038 1.00003V2.00003C39.7698 2.00003 44.3673 2.37921 49.0971 3.13936L49.2558 2.15203L49.4145 1.1647C44.587 0.388851 39.8832 3.05176e-05 35.3038 3.05176e-05V1.00003ZM49.2558 2.15203L49.0998 3.13979C53.9393 3.90392 57.8111 4.74803 60.732 5.66603L61.0318 4.71204L61.3316 3.75804C58.2792 2.79871 54.3003 1.93614 49.4118 1.16427L49.2558 2.15203ZM61.0318 4.71204H60.0318V24.68H61.0318H62.0318V4.71204H61.0318ZM61.0318 24.68L61.4066 23.7529C57.3435 22.1104 53.4391 20.9375 49.6947 20.2409L49.5118 21.224L49.3289 22.2072C52.9232 22.8759 56.6987 24.007 60.657 25.6071L61.0318 24.68ZM49.5118 21.224L49.6947 20.2409C45.9739 19.5487 42.4562 19.2 39.1438 19.2V20.2V21.2C42.3168 21.2 45.7111 21.5341 49.3289 22.2072L49.5118 21.224ZM39.1438 20.2V19.2C35.3411 19.2 32.0628 19.5021 29.3235 20.1206L29.5438 21.096L29.7641 22.0715C32.3155 21.4953 35.4372 21.2 39.1438 21.2V20.2ZM29.5438 21.096L29.3235 20.1206C27.8617 20.4507 26.6518 21.066 25.81 22.0435C24.9599 23.0308 24.5758 24.2823 24.5758 25.704H25.5758H26.5758C26.5758 24.6511 26.8531 23.8973 27.3256 23.3486C27.8065 22.7901 28.5806 22.3387 29.7641 22.0715L29.5438 21.096ZM25.5758 25.704H24.5758C24.5758 26.9537 24.9042 28.0876 25.5896 29.063C26.2693 30.0302 27.2573 30.7815 28.4847 31.348L28.9038 30.44L29.3229 29.5321C28.3316 29.0746 27.6557 28.5245 27.226 27.9131C26.8021 27.3098 26.5758 26.5877 26.5758 25.704H25.5758ZM28.9038 30.44L28.5265 31.3661C30.8961 32.3315 35.0053 33.5828 40.8079 35.1187L41.0638 34.152L41.3197 33.1853C35.517 31.6493 31.5195 30.4259 29.2811 29.5139L28.9038 30.44ZM41.0638 34.152L40.8069 35.1185C47.4923 36.8956 52.4774 39.0315 55.8333 41.4871L56.4238 40.68L57.0143 39.873C53.3729 37.2085 48.118 34.9925 41.3207 33.1856L41.0638 34.152ZM56.4238 40.68L55.8426 41.4938C59.299 43.9626 61.5866 46.7996 62.7835 49.9912L63.7198 49.64L64.6561 49.2889C63.293 45.6538 60.7166 42.5174 57.005 39.8663L56.4238 40.68ZM63.7198 49.64L62.7865 49.999C64.0147 53.1924 64.6398 56.8646 64.6398 61.032H65.6398H66.6398C66.6398 56.6662 65.9849 52.7437 64.6532 49.2811L63.7198 49.64ZM65.6398 61.032H64.6398C64.6398 68.2411 61.874 74.0096 56.3139 78.4249L56.9358 79.208L57.5577 79.9911C63.603 75.1905 66.6398 68.8416 66.6398 61.032H65.6398ZM56.9358 79.208L56.3211 78.4193C50.7719 82.7444 42.2455 84.992 30.5678 84.992V85.992V86.992C42.4421 86.992 51.4944 84.717 57.5505 79.9968L56.9358 79.208Z" fill="black" mask="url(#path-1-outside-1_204_6)"/>
</svg>
