<svg width="73" height="85" viewBox="0 0 73 85" fill="none" xmlns="http://www.w3.org/2000/svg">
<mask id="path-1-outside-1_204_7" maskUnits="userSpaceOnUse" x="-0.827637" y="-0.567993" width="74" height="85" fill="black">
<rect fill="white" x="-0.827637" y="-0.567993" width="74" height="85"/>
<path d="M24.1679 83.432V18.92H0.999863V1H71.3999V18.92H48.2319V83.432H24.1679Z"/>
</mask>
<path d="M24.1679 83.432H23.1679V84.432H24.1679V83.432ZM24.1679 18.92H25.1679V17.92H24.1679V18.92ZM0.999863 18.92H-0.000136673V19.92H0.999863V18.92ZM0.999863 1V0H-0.000136673V1H0.999863ZM71.3999 1H72.3999V0H71.3999V1ZM71.3999 18.92V19.92H72.3999V18.92H71.3999ZM48.2319 18.92V17.92H47.2319V18.92H48.2319ZM48.2319 83.432V84.432H49.2319V83.432H48.2319ZM24.1679 83.432H25.1679V18.92H24.1679H23.1679V83.432H24.1679ZM24.1679 18.92V17.92H0.999863V18.92V19.92H24.1679V18.92ZM0.999863 18.92H1.99986V1H0.999863H-0.000136673V18.92H0.999863ZM0.999863 1V2H71.3999V1V0H0.999863V1ZM71.3999 1H70.3999V18.92H71.3999H72.3999V1H71.3999ZM71.3999 18.92V17.92H48.2319V18.92V19.92H71.3999V18.92ZM48.2319 18.92H47.2319V83.432H48.2319H49.2319V18.92H48.2319ZM48.2319 83.432V82.432H24.1679V83.432V84.432H48.2319V83.432Z" fill="black" mask="url(#path-1-outside-1_204_7)"/>
</svg>
