<svg width="92" height="85" viewBox="0 0 92 85" fill="none" xmlns="http://www.w3.org/2000/svg">
<mask id="path-1-outside-1_204_2" maskUnits="userSpaceOnUse" x="-0.183105" y="-0.567993" width="92" height="85" fill="black">
<rect fill="white" x="-0.183105" y="-0.567993" width="92" height="85"/>
<path d="M33.0704 83.432L1.45439 1H26.5424L45.7424 55.528L64.9424 1H90.1584L58.5424 83.432H33.0704Z"/>
</mask>
<path d="M33.0704 83.432L32.1367 83.7901L32.3829 84.432H33.0704V83.432ZM1.45439 1V0H-0.000174827L0.520713 1.3581L1.45439 1ZM26.5424 1L27.4856 0.667875L27.2505 0H26.5424V1ZM45.7424 55.528L44.7992 55.8601L45.7424 58.5389L46.6856 55.8601L45.7424 55.528ZM64.9424 1V0H64.2343L63.9992 0.667875L64.9424 1ZM90.1584 1L91.0921 1.3581L91.613 0H90.1584V1ZM58.5424 83.432V84.432H59.2299L59.4761 83.7901L58.5424 83.432ZM33.0704 83.432L34.0041 83.0739L2.38808 0.641895L1.45439 1L0.520713 1.3581L32.1367 83.7901L33.0704 83.432ZM1.45439 1V2H26.5424V1V0H1.45439V1ZM26.5424 1L25.5992 1.33213L44.7992 55.8601L45.7424 55.528L46.6856 55.1959L27.4856 0.667875L26.5424 1ZM45.7424 55.528L46.6856 55.8601L65.8856 1.33213L64.9424 1L63.9992 0.667875L44.7992 55.1959L45.7424 55.528ZM64.9424 1V2H90.1584V1V0H64.9424V1ZM90.1584 1L89.2247 0.641895L57.6087 83.0739L58.5424 83.432L59.4761 83.7901L91.0921 1.3581L90.1584 1ZM58.5424 83.432V82.432H33.0704V83.432V84.432H58.5424V83.432Z" fill="black" mask="url(#path-1-outside-1_204_2)"/>
</svg>
