<svg width="87" height="85" viewBox="0 0 87 85" fill="none" xmlns="http://www.w3.org/2000/svg">
<mask id="path-1-outside-1_204_5" maskUnits="userSpaceOnUse" x="-0.543457" y="-0.567993" width="88" height="85" fill="black">
<rect fill="white" x="-0.543457" y="-0.567993" width="88" height="85"/>
<path d="M31.415 83.432V53.224L1.71904 1H26.807L43.447 32.104L60.087 1H85.175L55.479 53.224V83.432H31.415Z"/>
</mask>
<path d="M31.415 83.432H30.415V84.432H31.415V83.432ZM31.415 53.224H32.415V52.9596L32.2843 52.7297L31.415 53.224ZM1.71904 1V0H5.17138e-05L0.849753 1.4943L1.71904 1ZM26.807 1L27.6888 0.528282L27.4062 0H26.807V1ZM43.447 32.104L42.5653 32.5757L43.447 34.2239L44.3288 32.5757L43.447 32.104ZM60.087 1V0H59.4879L59.2053 0.528282L60.087 1ZM85.175 1L86.0443 1.4943L86.894 0H85.175V1ZM55.479 53.224L54.6098 52.7297L54.479 52.9596V53.224H55.479ZM55.479 83.432V84.432H56.479V83.432H55.479ZM31.415 83.432H32.415V53.224H31.415H30.415V83.432H31.415ZM31.415 53.224L32.2843 52.7297L2.58833 0.505698L1.71904 1L0.849753 1.4943L30.5458 53.7183L31.415 53.224ZM1.71904 1V2H26.807V1V0H1.71904V1ZM26.807 1L25.9253 1.47172L42.5653 32.5757L43.447 32.104L44.3288 31.6323L27.6888 0.528282L26.807 1ZM43.447 32.104L44.3288 32.5757L60.9688 1.47172L60.087 1L59.2053 0.528282L42.5653 31.6323L43.447 32.104ZM60.087 1V2H85.175V1V0H60.087V1ZM85.175 1L84.3058 0.505698L54.6098 52.7297L55.479 53.224L56.3483 53.7183L86.0443 1.4943L85.175 1ZM55.479 53.224H54.479V83.432H55.479H56.479V53.224H55.479ZM55.479 83.432V82.432H31.415V83.432V84.432H55.479V83.432Z" fill="black" mask="url(#path-1-outside-1_204_5)"/>
</svg>
